<mxfile host="65bd71144e">
    <diagram id="E6aV1Ud_MkHgx_vtLWaX" name="Pagina-1">
        <mxGraphModel dx="3098" dy="2156" grid="1" gridSize="10" guides="1" tooltips="1" connect="1" arrows="1" fold="1" page="1" pageScale="1" pageWidth="827" pageHeight="1169" background="none" math="0" shadow="1">
            <root>
                <mxCell id="0"/>
                <mxCell id="1" parent="0"/>
                <mxCell id="oFkv1oqs9FkYwPD8grtW-33" value="Contabilita'" style="swimlane;rounded=0;fillColor=#60a917;fontColor=#ffffff;strokeColor=#2D7600;" parent="1" vertex="1">
                    <mxGeometry x="360" y="250" width="540" height="460" as="geometry"/>
                </mxCell>
                <mxCell id="oFkv1oqs9FkYwPD8grtW-10" value="&lt;p class=&quot;MsoListParagraph&quot;&gt;&lt;span&gt;Il Cliente&lt;br&gt;effettua il pagamento&lt;/span&gt;&lt;/p&gt;" style="rounded=0;whiteSpace=wrap;html=1;" parent="oFkv1oqs9FkYwPD8grtW-33" vertex="1">
                    <mxGeometry x="20" y="70" width="120" height="60" as="geometry"/>
                </mxCell>
                <mxCell id="12" style="edgeStyle=none;html=1;exitX=0.5;exitY=1;exitDx=0;exitDy=0;entryX=0.5;entryY=0;entryDx=0;entryDy=0;" parent="oFkv1oqs9FkYwPD8grtW-33" source="oFkv1oqs9FkYwPD8grtW-11" target="10" edge="1">
                    <mxGeometry relative="1" as="geometry"/>
                </mxCell>
                <mxCell id="80" style="edgeStyle=none;html=1;entryX=0.5;entryY=0;entryDx=0;entryDy=0;" parent="oFkv1oqs9FkYwPD8grtW-33" source="oFkv1oqs9FkYwPD8grtW-11" target="78" edge="1">
                    <mxGeometry relative="1" as="geometry"/>
                </mxCell>
                <mxCell id="84" style="edgeStyle=none;rounded=0;html=1;entryX=0;entryY=0.5;entryDx=0;entryDy=0;" parent="oFkv1oqs9FkYwPD8grtW-33" source="oFkv1oqs9FkYwPD8grtW-11" target="83" edge="1">
                    <mxGeometry relative="1" as="geometry"/>
                </mxCell>
                <mxCell id="oFkv1oqs9FkYwPD8grtW-11" value="&lt;p class=&quot;MsoListParagraph&quot;&gt;Impiegato amministrativo gestisce il pagamento&lt;/p&gt;" style="rounded=0;whiteSpace=wrap;html=1;" parent="oFkv1oqs9FkYwPD8grtW-33" vertex="1">
                    <mxGeometry x="190" y="140" width="120" height="60" as="geometry"/>
                </mxCell>
                <mxCell id="oFkv1oqs9FkYwPD8grtW-19" style="edgeStyle=orthogonalEdgeStyle;rounded=0;orthogonalLoop=1;jettySize=auto;html=1;" parent="oFkv1oqs9FkYwPD8grtW-33" source="oFkv1oqs9FkYwPD8grtW-10" target="oFkv1oqs9FkYwPD8grtW-11" edge="1">
                    <mxGeometry relative="1" as="geometry"/>
                </mxCell>
                <mxCell id="10" value="Fatturazione clienti" style="rounded=0;whiteSpace=wrap;html=1;" parent="oFkv1oqs9FkYwPD8grtW-33" vertex="1">
                    <mxGeometry x="40" y="270" width="120" height="60" as="geometry"/>
                </mxCell>
                <mxCell id="78" value="Fatturazione fornitori" style="rounded=0;whiteSpace=wrap;html=1;" parent="oFkv1oqs9FkYwPD8grtW-33" vertex="1">
                    <mxGeometry x="270" y="295" width="120" height="60" as="geometry"/>
                </mxCell>
                <mxCell id="83" value="fatturazione dipendenti" style="rounded=0;whiteSpace=wrap;html=1;" parent="oFkv1oqs9FkYwPD8grtW-33" vertex="1">
                    <mxGeometry x="347" y="140" width="120" height="60" as="geometry"/>
                </mxCell>
                <mxCell id="oFkv1oqs9FkYwPD8grtW-34" value="Magazzino interno" style="swimlane;rounded=0;fillColor=#f0a30a;fontColor=#000000;strokeColor=#BD7000;startSize=23;" parent="1" vertex="1">
                    <mxGeometry x="-850" y="770" width="360" height="490" as="geometry"/>
                </mxCell>
                <mxCell id="53" style="edgeStyle=none;html=1;" parent="oFkv1oqs9FkYwPD8grtW-34" source="oFkv1oqs9FkYwPD8grtW-22" target="35" edge="1">
                    <mxGeometry relative="1" as="geometry"/>
                </mxCell>
                <mxCell id="76" style="edgeStyle=none;html=1;entryX=0.5;entryY=0;entryDx=0;entryDy=0;" parent="oFkv1oqs9FkYwPD8grtW-34" source="oFkv1oqs9FkYwPD8grtW-22" target="34" edge="1">
                    <mxGeometry relative="1" as="geometry"/>
                </mxCell>
                <mxCell id="oFkv1oqs9FkYwPD8grtW-22" value="&lt;p class=&quot;MsoListParagraph&quot; style=&quot;line-height: 1&quot;&gt;Elenco materie prime&lt;/p&gt;" style="rounded=0;whiteSpace=wrap;html=1;verticalAlign=middle;" parent="oFkv1oqs9FkYwPD8grtW-34" vertex="1">
                    <mxGeometry x="205" y="100" width="115" height="50" as="geometry"/>
                </mxCell>
                <mxCell id="52" style="edgeStyle=none;html=1;entryX=1;entryY=0.75;entryDx=0;entryDy=0;" parent="oFkv1oqs9FkYwPD8grtW-34" source="24" target="oFkv1oqs9FkYwPD8grtW-39" edge="1">
                    <mxGeometry relative="1" as="geometry"/>
                </mxCell>
                <mxCell id="24" value="Prodotti subito vendibili" style="rounded=0;whiteSpace=wrap;html=1;" parent="oFkv1oqs9FkYwPD8grtW-34" vertex="1">
                    <mxGeometry x="205" y="410" width="120" height="60" as="geometry"/>
                </mxCell>
                <mxCell id="30" value="prodotti da rifinire" style="rounded=0;whiteSpace=wrap;html=1;" parent="oFkv1oqs9FkYwPD8grtW-34" vertex="1">
                    <mxGeometry x="205" y="330" width="120" height="60" as="geometry"/>
                </mxCell>
                <mxCell id="34" value="Localizzazione&amp;nbsp;" style="rounded=0;whiteSpace=wrap;html=1;" parent="oFkv1oqs9FkYwPD8grtW-34" vertex="1">
                    <mxGeometry x="205" y="170" width="115" height="50" as="geometry"/>
                </mxCell>
                <mxCell id="35" value="Corrispondenza codice identificativi&amp;nbsp;" style="rounded=0;whiteSpace=wrap;html=1;" parent="oFkv1oqs9FkYwPD8grtW-34" vertex="1">
                    <mxGeometry x="40" y="100" width="115" height="50" as="geometry"/>
                </mxCell>
                <mxCell id="oFkv1oqs9FkYwPD8grtW-39" value="&lt;p class=&quot;MsoListParagraph&quot;&gt;&lt;span&gt;I prodotti da&lt;br&gt;consegnare vengono spediti dagli autisti interni oppure usufruendo di un&lt;br&gt;fornitore di servizi di spedizione&lt;/span&gt;&lt;/p&gt;" style="rounded=0;whiteSpace=wrap;html=1;" parent="oFkv1oqs9FkYwPD8grtW-34" vertex="1">
                    <mxGeometry x="23" y="330" width="120" height="150" as="geometry"/>
                </mxCell>
                <mxCell id="5hyOwqA2a9329Ghght_--505" style="edgeStyle=orthogonalEdgeStyle;rounded=0;orthogonalLoop=1;jettySize=auto;html=1;" parent="1" source="5hyOwqA2a9329Ghght_--500" target="oFkv1oqs9FkYwPD8grtW-10" edge="1">
                    <mxGeometry relative="1" as="geometry"/>
                </mxCell>
                <mxCell id="11" value="Azienda&#10;" style="swimlane;fillColor=#1ba1e2;fontColor=#ffffff;strokeColor=#006EAF;verticalAlign=top;" parent="1" vertex="1">
                    <mxGeometry x="-560" y="-100" width="900" height="840" as="geometry"/>
                </mxCell>
                <mxCell id="oFkv1oqs9FkYwPD8grtW-6" value="&lt;p class=&quot;MsoListParagraph&quot;&gt;&lt;span&gt;Lo stilista del cliente&lt;br&gt;richiede un campione, dopo aver consegnato le specifiche tecniche&lt;/span&gt;&lt;/p&gt;" style="rounded=0;whiteSpace=wrap;html=1;" parent="11" vertex="1">
                    <mxGeometry x="140" y="335" width="120" height="90" as="geometry"/>
                </mxCell>
                <mxCell id="oFkv1oqs9FkYwPD8grtW-4" value="&lt;p class=&quot;MsoListParagraph&quot;&gt;&lt;span&gt;Il cliente&lt;br&gt;sceglie di fare un ordinazione di un prodotto personalizzato&lt;/span&gt;&lt;/p&gt;" style="rounded=0;whiteSpace=wrap;html=1;" parent="11" vertex="1">
                    <mxGeometry x="140" y="220" width="120" height="90" as="geometry"/>
                </mxCell>
                <mxCell id="oFkv1oqs9FkYwPD8grtW-3" value="&lt;p class=&quot;MsoListParagraph&quot;&gt;&lt;span&gt;Il cliente&lt;br&gt;comunica con l'impiegato dell'azienda per effettuare un ordine&lt;/span&gt;&lt;/p&gt;" style="rounded=0;whiteSpace=wrap;html=1;" parent="11" vertex="1">
                    <mxGeometry x="226" y="60" width="160" height="100" as="geometry"/>
                </mxCell>
                <mxCell id="oFkv1oqs9FkYwPD8grtW-13" style="edgeStyle=orthogonalEdgeStyle;rounded=0;orthogonalLoop=1;jettySize=auto;html=1;" parent="11" source="oFkv1oqs9FkYwPD8grtW-3" target="oFkv1oqs9FkYwPD8grtW-4" edge="1">
                    <mxGeometry relative="1" as="geometry"/>
                </mxCell>
                <mxCell id="oFkv1oqs9FkYwPD8grtW-15" style="edgeStyle=orthogonalEdgeStyle;rounded=0;orthogonalLoop=1;jettySize=auto;html=1;" parent="11" source="oFkv1oqs9FkYwPD8grtW-4" target="oFkv1oqs9FkYwPD8grtW-6" edge="1">
                    <mxGeometry relative="1" as="geometry"/>
                </mxCell>
                <mxCell id="oFkv1oqs9FkYwPD8grtW-16" style="edgeStyle=orthogonalEdgeStyle;rounded=0;orthogonalLoop=1;jettySize=auto;html=1;" parent="11" source="oFkv1oqs9FkYwPD8grtW-6" target="oFkv1oqs9FkYwPD8grtW-7" edge="1">
                    <mxGeometry relative="1" as="geometry"/>
                </mxCell>
                <mxCell id="3" style="edgeStyle=none;rounded=0;html=1;exitX=0.5;exitY=1;exitDx=0;exitDy=0;entryX=1;entryY=0.5;entryDx=0;entryDy=0;" parent="11" source="5hyOwqA2a9329Ghght_--497" target="5hyOwqA2a9329Ghght_--500" edge="1">
                    <mxGeometry relative="1" as="geometry">
                        <Array as="points">
                            <mxPoint x="406" y="580"/>
                        </Array>
                    </mxGeometry>
                </mxCell>
                <mxCell id="5hyOwqA2a9329Ghght_--497" value="&lt;p class=&quot;MsoListParagraph&quot;&gt;&lt;span&gt;Il cliente&lt;br&gt;sceglie un prodotto dalla collezione esistente&lt;/span&gt;&lt;/p&gt;" style="rounded=0;whiteSpace=wrap;html=1;" parent="11" vertex="1">
                    <mxGeometry x="346" y="220" width="120" height="90" as="geometry"/>
                </mxCell>
                <mxCell id="5hyOwqA2a9329Ghght_--502" style="edgeStyle=orthogonalEdgeStyle;rounded=0;orthogonalLoop=1;jettySize=auto;html=1;" parent="11" source="oFkv1oqs9FkYwPD8grtW-3" target="5hyOwqA2a9329Ghght_--497" edge="1">
                    <mxGeometry relative="1" as="geometry"/>
                </mxCell>
                <mxCell id="oFkv1oqs9FkYwPD8grtW-7" value="&lt;p class=&quot;MsoListParagraph&quot;&gt;Scelta della campionatura&lt;/p&gt;" style="rounded=0;whiteSpace=wrap;html=1;" parent="11" vertex="1">
                    <mxGeometry x="140" y="460" width="120" height="60" as="geometry"/>
                </mxCell>
                <mxCell id="5hyOwqA2a9329Ghght_--500" value="&lt;p class=&quot;MsoListParagraph&quot;&gt;&lt;span&gt;Il campione viene&lt;br&gt;approvato&lt;/span&gt;&lt;/p&gt;" style="rounded=0;whiteSpace=wrap;html=1;" parent="11" vertex="1">
                    <mxGeometry x="140" y="550" width="120" height="60" as="geometry"/>
                </mxCell>
                <mxCell id="5hyOwqA2a9329Ghght_--504" style="edgeStyle=orthogonalEdgeStyle;rounded=0;orthogonalLoop=1;jettySize=auto;html=1;" parent="11" source="oFkv1oqs9FkYwPD8grtW-7" target="5hyOwqA2a9329Ghght_--500" edge="1">
                    <mxGeometry relative="1" as="geometry"/>
                </mxCell>
                <mxCell id="77" style="edgeStyle=none;rounded=0;html=1;entryX=0;entryY=0.5;entryDx=0;entryDy=0;" parent="11" source="55" target="75" edge="1">
                    <mxGeometry relative="1" as="geometry"/>
                </mxCell>
                <mxCell id="55" value="L'impiegato amministrativo contatta il fornitore" style="rounded=0;whiteSpace=wrap;html=1;" parent="11" vertex="1">
                    <mxGeometry x="500" y="90" width="120" height="80" as="geometry"/>
                </mxCell>
                <mxCell id="63" value="Presente" style="rounded=0;whiteSpace=wrap;html=1;" parent="11" vertex="1">
                    <mxGeometry x="140" y="730" width="120" height="60" as="geometry"/>
                </mxCell>
                <mxCell id="71" style="edgeStyle=none;rounded=0;html=1;entryX=0.5;entryY=0;entryDx=0;entryDy=0;" parent="11" source="58" target="63" edge="1">
                    <mxGeometry relative="1" as="geometry"/>
                </mxCell>
                <mxCell id="89" style="edgeStyle=none;html=1;entryX=0;entryY=0.5;entryDx=0;entryDy=0;" edge="1" parent="11" source="58" target="65">
                    <mxGeometry relative="1" as="geometry"/>
                </mxCell>
                <mxCell id="58" value="&lt;span&gt;Ricerca in magazzino&lt;/span&gt;" style="rounded=0;whiteSpace=wrap;html=1;" parent="11" vertex="1">
                    <mxGeometry x="140" y="640" width="120" height="60" as="geometry"/>
                </mxCell>
                <mxCell id="75" value="Il fronitore prende atto dell'ordine e richiede il pagamento&amp;nbsp;&amp;nbsp;" style="rounded=0;whiteSpace=wrap;html=1;" parent="11" vertex="1">
                    <mxGeometry x="670" y="100" width="150" height="60" as="geometry"/>
                </mxCell>
                <mxCell id="81" value="Consegna e immagazzinamento" style="rounded=0;whiteSpace=wrap;html=1;" parent="11" vertex="1">
                    <mxGeometry x="730" y="710" width="120" height="60" as="geometry"/>
                </mxCell>
                <mxCell id="65" value="Non presente" style="rounded=0;whiteSpace=wrap;html=1;" parent="11" vertex="1">
                    <mxGeometry x="490" y="640" width="120" height="60" as="geometry"/>
                </mxCell>
                <mxCell id="74" style="edgeStyle=none;rounded=0;html=1;entryX=0.5;entryY=1;entryDx=0;entryDy=0;" parent="11" source="65" target="55" edge="1">
                    <mxGeometry relative="1" as="geometry"/>
                </mxCell>
                <mxCell id="13" value="Produzione" style="swimlane;fillColor=#a20025;fontColor=#ffffff;strokeColor=#6F0000;" parent="1" vertex="1">
                    <mxGeometry x="-380" y="725" width="510" height="540" as="geometry"/>
                </mxCell>
                <mxCell id="oFkv1oqs9FkYwPD8grtW-26" value="&lt;p class=&quot;MsoListParagraph&quot;&gt;&lt;span&gt;Il capoturno&lt;br&gt;riceve i comandi e organizza gli orari di lavoro&lt;/span&gt;&lt;/p&gt;" style="rounded=0;whiteSpace=wrap;html=1;" parent="13" vertex="1">
                    <mxGeometry x="162" y="240" width="160" height="60" as="geometry"/>
                </mxCell>
                <mxCell id="5hyOwqA2a9329Ghght_--499" value="&lt;p class=&quot;MsoListParagraph&quot;&gt;&lt;span&gt;L’impiegato tecnico gestisce lo sviluppo della produzione&lt;/span&gt;&lt;/p&gt;" style="rounded=0;whiteSpace=wrap;html=1;rotation=0;" parent="13" vertex="1">
                    <mxGeometry x="162" y="100" width="160" height="70" as="geometry"/>
                </mxCell>
                <mxCell id="5hyOwqA2a9329Ghght_--508" style="edgeStyle=orthogonalEdgeStyle;rounded=0;orthogonalLoop=1;jettySize=auto;html=1;" parent="13" source="5hyOwqA2a9329Ghght_--499" target="oFkv1oqs9FkYwPD8grtW-26" edge="1">
                    <mxGeometry relative="1" as="geometry"/>
                </mxCell>
                <mxCell id="oFkv1oqs9FkYwPD8grtW-29" value="&lt;p class=&quot;MsoListParagraph&quot;&gt;&lt;span&gt;Se ne trova uno&lt;br&gt;difetto di produzione lo riporta al tecnico e lui provvederà a modificare il&lt;br&gt;processo di produzione&lt;/span&gt;&lt;/p&gt;" style="rounded=0;whiteSpace=wrap;html=1;" parent="13" vertex="1">
                    <mxGeometry x="370" y="315" width="120" height="130" as="geometry"/>
                </mxCell>
                <mxCell id="5hyOwqA2a9329Ghght_--514" style="edgeStyle=orthogonalEdgeStyle;rounded=0;orthogonalLoop=1;jettySize=auto;html=1;" parent="13" source="oFkv1oqs9FkYwPD8grtW-29" target="5hyOwqA2a9329Ghght_--499" edge="1">
                    <mxGeometry relative="1" as="geometry">
                        <Array as="points">
                            <mxPoint x="292" y="60"/>
                            <mxPoint x="92" y="60"/>
                        </Array>
                    </mxGeometry>
                </mxCell>
                <mxCell id="5hyOwqA2a9329Ghght_--501" value="&lt;p class=&quot;MsoListParagraph&quot;&gt;Operaio del controllo qualià effetua verifica i pezzi&lt;/p&gt;" style="rounded=0;whiteSpace=wrap;html=1;" parent="13" vertex="1">
                    <mxGeometry x="157" y="350" width="170" height="60" as="geometry"/>
                </mxCell>
                <mxCell id="5hyOwqA2a9329Ghght_--511" style="edgeStyle=orthogonalEdgeStyle;rounded=0;orthogonalLoop=1;jettySize=auto;html=1;" parent="13" source="oFkv1oqs9FkYwPD8grtW-26" target="5hyOwqA2a9329Ghght_--501" edge="1">
                    <mxGeometry relative="1" as="geometry"/>
                </mxCell>
                <mxCell id="5hyOwqA2a9329Ghght_--513" style="edgeStyle=orthogonalEdgeStyle;rounded=0;orthogonalLoop=1;jettySize=auto;html=1;" parent="13" source="5hyOwqA2a9329Ghght_--501" target="oFkv1oqs9FkYwPD8grtW-29" edge="1">
                    <mxGeometry relative="1" as="geometry"/>
                </mxCell>
                <mxCell id="oFkv1oqs9FkYwPD8grtW-35" value="&lt;p class=&quot;MsoListParagraph&quot;&gt;Pezzi ultimati&lt;/p&gt;" style="rounded=0;whiteSpace=wrap;html=1;" parent="13" vertex="1">
                    <mxGeometry x="182" y="430" width="120" height="60" as="geometry"/>
                </mxCell>
                <mxCell id="5hyOwqA2a9329Ghght_--512" style="edgeStyle=orthogonalEdgeStyle;rounded=0;orthogonalLoop=1;jettySize=auto;html=1;" parent="13" source="5hyOwqA2a9329Ghght_--501" target="oFkv1oqs9FkYwPD8grtW-35" edge="1">
                    <mxGeometry relative="1" as="geometry"/>
                </mxCell>
                <mxCell id="62" style="edgeStyle=none;rounded=0;html=1;exitX=1;exitY=0.5;exitDx=0;exitDy=0;entryX=0;entryY=0.5;entryDx=0;entryDy=0;" parent="1" source="34" target="5hyOwqA2a9329Ghght_--499" edge="1">
                    <mxGeometry relative="1" as="geometry"/>
                </mxCell>
                <mxCell id="66" style="edgeStyle=none;rounded=0;html=1;exitX=0;exitY=0.5;exitDx=0;exitDy=0;entryX=1;entryY=0.5;entryDx=0;entryDy=0;" parent="1" source="oFkv1oqs9FkYwPD8grtW-35" target="30" edge="1">
                    <mxGeometry relative="1" as="geometry"/>
                </mxCell>
                <mxCell id="67" style="edgeStyle=none;rounded=0;html=1;entryX=1;entryY=0.5;entryDx=0;entryDy=0;" parent="1" source="oFkv1oqs9FkYwPD8grtW-35" target="24" edge="1">
                    <mxGeometry relative="1" as="geometry"/>
                </mxCell>
                <mxCell id="70" style="edgeStyle=none;rounded=0;html=1;entryX=1;entryY=0.5;entryDx=0;entryDy=0;" parent="1" source="63" target="oFkv1oqs9FkYwPD8grtW-22" edge="1">
                    <mxGeometry relative="1" as="geometry"/>
                </mxCell>
                <mxCell id="79" style="edgeStyle=none;rounded=0;html=1;entryX=0.617;entryY=-0.009;entryDx=0;entryDy=0;entryPerimeter=0;" parent="1" source="75" target="oFkv1oqs9FkYwPD8grtW-11" edge="1">
                    <mxGeometry relative="1" as="geometry">
                        <Array as="points">
                            <mxPoint x="185" y="200"/>
                            <mxPoint x="624" y="200"/>
                        </Array>
                    </mxGeometry>
                </mxCell>
                <mxCell id="85" style="edgeStyle=none;html=1;entryX=1;entryY=0.5;entryDx=0;entryDy=0;" edge="1" parent="1" source="78" target="81">
                    <mxGeometry relative="1" as="geometry"/>
                </mxCell>
                <mxCell id="87" style="edgeStyle=none;html=1;entryX=1;entryY=0.5;entryDx=0;entryDy=0;" edge="1" parent="1" source="81" target="oFkv1oqs9FkYwPD8grtW-22">
                    <mxGeometry relative="1" as="geometry"/>
                </mxCell>
                <mxCell id="90" style="edgeStyle=none;html=1;entryX=1;entryY=0.25;entryDx=0;entryDy=0;" edge="1" parent="1" source="10" target="58">
                    <mxGeometry relative="1" as="geometry">
                        <Array as="points">
                            <mxPoint x="40" y="510"/>
                            <mxPoint x="-140" y="510"/>
                        </Array>
                    </mxGeometry>
                </mxCell>
            </root>
        </mxGraphModel>
    </diagram>
</mxfile>